<mxfile host="app.diagrams.net" modified="2023-11-24T23:01:28.573Z" agent="Mozilla/5.0 (Windows NT 10.0; Win64; x64) AppleWebKit/537.36 (KHTML, like Gecko) Chrome/119.0.0.0 Safari/537.36" etag="IHFNCBxthHxLv3RAFFYv" version="22.1.4" type="device">
  <diagram name="Página-1" id="jahG8-6LIpspOq8SztPm">
    <mxGraphModel dx="1032" dy="539" grid="1" gridSize="10" guides="1" tooltips="1" connect="1" arrows="1" fold="1" page="1" pageScale="1" pageWidth="827" pageHeight="1169" math="0" shadow="0">
      <root>
        <mxCell id="0" />
        <mxCell id="1" parent="0" />
        <mxCell id="iecgY2AoDZlZf07ehHM2-23" value="" style="edgeStyle=orthogonalEdgeStyle;rounded=0;orthogonalLoop=1;jettySize=auto;html=1;" edge="1" parent="1" source="iecgY2AoDZlZf07ehHM2-21">
          <mxGeometry relative="1" as="geometry">
            <mxPoint x="399" y="160" as="targetPoint" />
          </mxGeometry>
        </mxCell>
        <mxCell id="iecgY2AoDZlZf07ehHM2-21" value="" style="ellipse;fillColor=strokeColor;html=1;" vertex="1" parent="1">
          <mxGeometry x="384" y="50" width="30" height="30" as="geometry" />
        </mxCell>
        <mxCell id="iecgY2AoDZlZf07ehHM2-24" value="Clientes&amp;nbsp;" style="html=1;dashed=0;rounded=1;absoluteArcSize=1;arcSize=20;verticalAlign=middle;align=center;whiteSpace=wrap;" vertex="1" parent="1">
          <mxGeometry x="100" y="170" width="160" height="50" as="geometry" />
        </mxCell>
        <mxCell id="iecgY2AoDZlZf07ehHM2-25" value="&lt;font style=&quot;font-size: 18px;&quot;&gt;*&lt;/font&gt;" style="text;resizeWidth=0;resizeHeight=0;points=[];part=1;verticalAlign=middle;align=center;html=1;" vertex="1" parent="iecgY2AoDZlZf07ehHM2-24">
          <mxGeometry x="1" y="0.5" width="41" height="20" relative="1" as="geometry">
            <mxPoint x="-41" y="-10" as="offset" />
          </mxGeometry>
        </mxCell>
        <mxCell id="iecgY2AoDZlZf07ehHM2-27" value="" style="edgeStyle=orthogonalEdgeStyle;rounded=0;orthogonalLoop=1;jettySize=auto;html=1;" edge="1" parent="1" source="iecgY2AoDZlZf07ehHM2-26" target="iecgY2AoDZlZf07ehHM2-25">
          <mxGeometry relative="1" as="geometry" />
        </mxCell>
        <mxCell id="iecgY2AoDZlZf07ehHM2-31" value="" style="edgeStyle=orthogonalEdgeStyle;rounded=0;orthogonalLoop=1;jettySize=auto;html=1;" edge="1" parent="1" source="iecgY2AoDZlZf07ehHM2-26" target="iecgY2AoDZlZf07ehHM2-29">
          <mxGeometry relative="1" as="geometry" />
        </mxCell>
        <mxCell id="iecgY2AoDZlZf07ehHM2-38" value="" style="edgeStyle=orthogonalEdgeStyle;rounded=0;orthogonalLoop=1;jettySize=auto;html=1;entryX=0.5;entryY=0;entryDx=0;entryDy=0;" edge="1" parent="1" source="iecgY2AoDZlZf07ehHM2-26" target="iecgY2AoDZlZf07ehHM2-34">
          <mxGeometry relative="1" as="geometry" />
        </mxCell>
        <mxCell id="iecgY2AoDZlZf07ehHM2-26" value="Abre menu" style="rhombus;" vertex="1" parent="1">
          <mxGeometry x="334" y="160" width="130" height="70" as="geometry" />
        </mxCell>
        <mxCell id="iecgY2AoDZlZf07ehHM2-29" value="Fornecedores&amp;nbsp;" style="html=1;dashed=0;rounded=1;absoluteArcSize=1;arcSize=20;verticalAlign=middle;align=center;whiteSpace=wrap;" vertex="1" parent="1">
          <mxGeometry x="540" y="170" width="160" height="50" as="geometry" />
        </mxCell>
        <mxCell id="iecgY2AoDZlZf07ehHM2-30" value="&lt;font style=&quot;font-size: 18px;&quot;&gt;*&lt;/font&gt;" style="text;resizeWidth=0;resizeHeight=0;points=[];part=1;verticalAlign=middle;align=center;html=1;" vertex="1" parent="iecgY2AoDZlZf07ehHM2-29">
          <mxGeometry x="1" y="0.5" width="41" height="20" relative="1" as="geometry">
            <mxPoint x="-41" y="-10" as="offset" />
          </mxGeometry>
        </mxCell>
        <mxCell id="iecgY2AoDZlZf07ehHM2-32" value="Serviços&amp;nbsp;" style="html=1;dashed=0;rounded=1;absoluteArcSize=1;arcSize=20;verticalAlign=middle;align=center;whiteSpace=wrap;" vertex="1" parent="1">
          <mxGeometry x="100" y="290" width="160" height="50" as="geometry" />
        </mxCell>
        <mxCell id="iecgY2AoDZlZf07ehHM2-33" value="&lt;font style=&quot;font-size: 18px;&quot;&gt;*&lt;/font&gt;" style="text;resizeWidth=0;resizeHeight=0;points=[];part=1;verticalAlign=middle;align=center;html=1;" vertex="1" parent="iecgY2AoDZlZf07ehHM2-32">
          <mxGeometry x="1" y="0.5" width="41" height="20" relative="1" as="geometry">
            <mxPoint x="-41" y="-10" as="offset" />
          </mxGeometry>
        </mxCell>
        <mxCell id="iecgY2AoDZlZf07ehHM2-43" value="" style="edgeStyle=orthogonalEdgeStyle;rounded=0;orthogonalLoop=1;jettySize=auto;html=1;" edge="1" parent="1" source="iecgY2AoDZlZf07ehHM2-34">
          <mxGeometry relative="1" as="geometry">
            <mxPoint x="399" y="410" as="targetPoint" />
          </mxGeometry>
        </mxCell>
        <mxCell id="iecgY2AoDZlZf07ehHM2-34" value="Compras&amp;nbsp;" style="html=1;dashed=0;rounded=1;absoluteArcSize=1;arcSize=20;verticalAlign=middle;align=center;whiteSpace=wrap;" vertex="1" parent="1">
          <mxGeometry x="319" y="300" width="160" height="50" as="geometry" />
        </mxCell>
        <mxCell id="iecgY2AoDZlZf07ehHM2-35" value="&lt;font style=&quot;font-size: 18px;&quot;&gt;*&lt;/font&gt;" style="text;resizeWidth=0;resizeHeight=0;points=[];part=1;verticalAlign=middle;align=center;html=1;" vertex="1" parent="iecgY2AoDZlZf07ehHM2-34">
          <mxGeometry x="1" y="0.5" width="41" height="20" relative="1" as="geometry">
            <mxPoint x="-41" y="-10" as="offset" />
          </mxGeometry>
        </mxCell>
        <mxCell id="iecgY2AoDZlZf07ehHM2-36" value="Pagamentos&amp;nbsp;" style="html=1;dashed=0;rounded=1;absoluteArcSize=1;arcSize=20;verticalAlign=middle;align=center;whiteSpace=wrap;" vertex="1" parent="1">
          <mxGeometry x="520" y="290" width="160" height="50" as="geometry" />
        </mxCell>
        <mxCell id="iecgY2AoDZlZf07ehHM2-37" value="&lt;font style=&quot;font-size: 18px;&quot;&gt;*&lt;/font&gt;" style="text;resizeWidth=0;resizeHeight=0;points=[];part=1;verticalAlign=middle;align=center;html=1;" vertex="1" parent="iecgY2AoDZlZf07ehHM2-36">
          <mxGeometry x="1" y="0.5" width="41" height="20" relative="1" as="geometry">
            <mxPoint x="-41" y="-10" as="offset" />
          </mxGeometry>
        </mxCell>
        <mxCell id="iecgY2AoDZlZf07ehHM2-39" value="" style="edgeStyle=orthogonalEdgeStyle;rounded=0;orthogonalLoop=1;jettySize=auto;html=1;entryX=0.5;entryY=0;entryDx=0;entryDy=0;exitX=0.5;exitY=1;exitDx=0;exitDy=0;" edge="1" parent="1" source="iecgY2AoDZlZf07ehHM2-26">
          <mxGeometry relative="1" as="geometry">
            <mxPoint x="170" y="220" as="sourcePoint" />
            <mxPoint x="170" y="290" as="targetPoint" />
          </mxGeometry>
        </mxCell>
        <mxCell id="iecgY2AoDZlZf07ehHM2-41" value="" style="edgeStyle=orthogonalEdgeStyle;rounded=0;orthogonalLoop=1;jettySize=auto;html=1;" edge="1" parent="1" target="iecgY2AoDZlZf07ehHM2-36">
          <mxGeometry relative="1" as="geometry">
            <mxPoint x="400" y="260" as="sourcePoint" />
            <mxPoint x="180" y="300" as="targetPoint" />
            <Array as="points">
              <mxPoint x="400" y="261" />
              <mxPoint x="608" y="261" />
            </Array>
          </mxGeometry>
        </mxCell>
        <mxCell id="iecgY2AoDZlZf07ehHM2-44" value="" style="ellipse;html=1;shape=endState;fillColor=strokeColor;" vertex="1" parent="1">
          <mxGeometry x="384" y="410" width="30" height="30" as="geometry" />
        </mxCell>
      </root>
    </mxGraphModel>
  </diagram>
</mxfile>
